<?xml version="1.0" standalone="no"?>
<!DOCTYPE svg PUBLIC "-//W3C//DTD SVG 20010904//EN"
 "http://www.w3.org/TR/2001/REC-SVG-20010904/DTD/svg10.dtd">
<svg version="1.0" xmlns="http://www.w3.org/2000/svg"
 width="512.000000pt" height="512.000000pt" viewBox="0 0 512.000000 512.000000"
 preserveAspectRatio="xMidYMid meet">
<metadata>
Created by potrace 1.16, written by Peter Selinger 2001-2019
</metadata>
<g transform="translate(0.000000,512.000000) scale(0.100000,-0.100000)"
fill="#000000" stroke="none">
<path d="M2385 4686 c-172 -33 -325 -124 -496 -295 -148 -149 -164 -180 -164
-316 1 -55 6 -108 11 -118 10 -17 17 -12 65 44 54 63 53 67 -10 21 -30 -22
-32 -23 -22 -4 6 11 30 36 53 56 66 57 139 69 236 41 77 -23 70 -32 -18 -27
-71 4 -85 2 -134 -22 -73 -36 -126 -95 -126 -141 0 -40 12 -45 34 -14 14 21
15 20 30 -32 22 -78 35 -168 43 -298 l6 -114 -24 16 c-13 9 -27 17 -31 17 -13
0 -29 -39 -54 -129 -37 -132 -34 -154 39 -303 55 -115 66 -130 99 -145 34 -15
36 -19 42 -72 4 -31 9 -68 12 -82 4 -22 -3 -30 -49 -62 -73 -51 -183 -166
-244 -257 l-51 -76 -98 -38 c-55 -22 -133 -59 -175 -82 -119 -69 -213 -109
-374 -159 -164 -52 -198 -66 -233 -99 -34 -30 -50 -65 -61 -133 -5 -34 -20
-76 -34 -97 -45 -66 -107 -289 -91 -330 12 -33 21 -14 28 58 7 83 38 201 65
255 l19 36 6 -45 c3 -25 8 -88 12 -140 3 -52 12 -135 19 -185 l13 -90 57 -53
c32 -29 59 -52 61 -50 2 2 -10 38 -26 80 -16 42 -43 143 -60 225 -52 256 -39
404 41 452 18 11 123 49 233 85 153 50 219 76 276 112 74 46 154 86 250 124
80 31 51 -5 -34 -43 -86 -38 -169 -80 -257 -130 -36 -20 -133 -61 -216 -91
-194 -69 -234 -91 -250 -136 -18 -53 -15 -195 7 -322 31 -180 36 -180 32 6 -4
183 7 292 35 334 15 24 125 79 283 142 47 19 112 49 145 68 67 38 258 122 264
116 2 -2 -1 -9 -6 -16 -6 -7 -37 -70 -68 -140 -32 -71 -58 -128 -60 -128 -1 0
-58 -14 -126 -30 -165 -41 -366 -105 -406 -130 -35 -21 -48 -59 -15 -44 61 27
513 165 520 159 2 -2 -6 -22 -18 -45 -25 -49 -20 -74 20 -92 l30 -13 -43 -44
-42 -44 98 7 c53 3 140 9 193 13 l96 6 -12 -24 c-7 -13 -89 -98 -181 -189 -93
-91 -169 -171 -169 -177 0 -29 438 -410 473 -410 31 0 342 -255 492 -404 88
-88 164 -159 168 -159 4 0 7 8 7 18 0 9 41 139 90 287 71 211 109 307 174 440
82 165 207 373 315 523 29 41 57 85 63 98 6 13 14 24 17 24 3 0 17 -25 30 -55
26 -61 36 -68 21 -15 -8 29 -6 39 15 70 14 19 44 50 66 69 53 44 69 83 69 174
0 153 -79 355 -185 476 -31 35 -53 66 -49 70 4 3 9 0 11 -7 3 -6 9 -10 13 -7
15 9 131 -144 166 -220 44 -92 72 -206 82 -335 l8 -105 22 45 c72 151 -52 491
-236 646 -118 100 -95 92 93 -32 107 -70 224 -171 288 -249 29 -36 89 -124
131 -197 43 -73 119 -200 168 -283 61 -103 88 -157 86 -175 -3 -24 -6 -25 -68
-24 -46 2 -101 14 -190 43 -132 44 -223 53 -290 30 l-33 -12 28 -15 c52 -27
168 -62 274 -82 115 -23 196 -64 207 -105 5 -22 -24 -90 -63 -144 l-17 -24 31
17 c45 23 133 113 133 136 0 11 -16 38 -35 59 l-36 39 41 7 c24 4 44 14 50 25
14 26 12 71 -5 100 -22 38 -18 40 28 15 57 -32 107 -40 131 -22 11 8 17 20 14
28 -3 8 -59 42 -125 76 -65 34 -128 73 -139 85 -12 13 -42 61 -68 108 -25 47
-54 95 -62 107 -14 20 -6 18 67 -16 46 -22 113 -47 149 -56 157 -39 348 -107
370 -130 35 -38 37 -109 6 -230 -25 -100 -53 -301 -43 -311 3 -3 22 9 42 28
36 33 37 34 47 148 7 63 12 170 12 237 1 108 -1 125 -20 150 -33 45 -107 78
-297 132 -98 28 -221 71 -275 95 -93 43 -99 48 -155 123 -122 162 -282 304
-444 393 -56 31 -81 50 -78 60 5 17 21 122 30 190 6 45 6 46 39 42 49 -6 79
27 131 143 42 94 45 106 45 187 0 134 -18 237 -47 266 l-24 24 -34 -21 -35
-20 0 72 c0 86 17 278 31 361 10 54 9 62 -11 88 -12 16 -20 30 -18 32 1 1 19
9 39 18 50 23 107 74 141 127 35 56 35 61 -1 61 -25 0 -91 18 -91 25 0 1 7 19
15 39 11 25 15 61 13 109 l-3 72 -16 -35 c-18 -39 -33 -54 -66 -64 -17 -6 -41
7 -108 58 -94 72 -172 116 -251 139 -28 8 -73 26 -100 40 -129 65 -315 91
-459 63z m53 -182 c-16 -8 -28 -17 -28 -20 0 -4 30 -3 68 0 64 6 65 6 35 -8
-39 -18 -176 -147 -205 -194 -12 -20 -30 -59 -40 -87 l-18 -50 4 61 c2 41 13
80 31 115 l27 54 -27 -25 c-67 -63 -95 -149 -71 -218 17 -48 5 -48 -20 0 -25
48 -21 117 11 179 14 30 34 62 42 72 9 9 13 20 10 23 -18 18 -103 -120 -116
-188 l-9 -43 -1 43 c-1 24 8 61 19 85 22 46 95 125 106 114 4 -4 28 9 54 28
47 34 126 75 145 74 6 0 -2 -7 -17 -15z m491 12 c-2 -3 -38 -12 -79 -20 -143
-30 -321 -140 -388 -241 -32 -49 -57 -141 -48 -175 17 -58 17 -65 0 -36 -9 16
-19 55 -21 86 -5 48 -1 67 20 113 53 115 207 229 352 260 65 14 174 22 164 13z
m-54 -80 c-220 -70 -405 -240 -405 -372 0 -26 11 -63 29 -100 l30 -59 -35 40
c-48 56 -69 130 -55 197 7 28 21 66 32 84 62 101 248 208 394 227 72 10 75 4
10 -17z m122 -62 c-3 -3 -12 -4 -19 -1 -8 3 -5 6 6 6 11 1 17 -2 13 -5z m-85
-24 c-111 -40 -199 -106 -254 -191 -36 -56 -42 -61 -27 -21 15 41 72 109 123
149 50 39 148 83 186 82 17 0 8 -6 -28 -19z m428 -35 c0 -13 -59 -25 -170 -34
-136 -11 -232 -33 -305 -68 -44 -21 -47 -22 -25 -4 74 61 181 91 333 92 56 1
113 5 127 9 32 10 40 11 40 5z m-1358 -76 c20 -5 47 -18 60 -29 l23 -19 -40
14 c-94 33 -193 9 -256 -62 -20 -23 -29 -29 -26 -17 3 10 9 31 12 46 9 35 34
57 87 73 42 13 68 12 140 -6z m357 -76 c-1 -58 -3 -69 -8 -43 -7 34 -3 120 5
120 2 0 3 -35 3 -77z m927 56 c54 -11 114 -19 132 -17 l32 4 -47 -49 c-83 -84
-95 -89 -217 -81 -59 4 -104 9 -102 11 2 2 48 8 101 14 84 7 105 13 146 40 27
17 49 32 49 33 0 7 -342 -14 -364 -23 -16 -6 -31 -10 -33 -7 -11 11 120 48
187 53 91 8 69 21 -40 23 -57 2 -68 4 -45 10 52 13 99 11 201 -11z m-1217 -40
c69 -24 77 -33 16 -19 -61 14 -151 12 -192 -5 -33 -14 -34 -14 -22 2 19 22 68
42 105 43 16 0 58 -9 93 -21z m965 -163 c27 -11 38 -25 54 -68 37 -101 46
-162 33 -223 l-13 -56 49 -82 48 -82 0 -120 c1 -74 6 -128 13 -142 19 -35 14
-126 -11 -196 -32 -88 -66 -142 -135 -219 l-59 -65 -7 -94 c-4 -52 -12 -116
-17 -143 -5 -27 -7 -51 -5 -53 2 -2 23 56 47 129 49 154 67 194 103 227 l26
24 0 -29 c0 -65 -23 -162 -47 -204 -15 -24 -88 -128 -164 -230 -168 -227 -176
-233 -328 -238 -134 -6 -198 8 -238 51 -17 18 -68 88 -113 156 -46 69 -107
158 -136 199 -59 83 -90 154 -100 234 l-6 53 22 -21 c12 -12 44 -63 71 -115
l50 -94 -6 50 c-13 114 -17 125 -56 168 -42 46 -50 63 -20 48 45 -25 79 -79
86 -138 13 -114 60 -311 71 -301 2 3 -7 52 -20 109 -31 131 -43 248 -27 277
10 19 8 24 -16 38 -135 82 -165 115 -211 233 -20 52 -25 82 -25 146 2 127 19
200 75 314 l51 105 -11 68 c-22 129 -11 200 39 242 57 48 135 33 365 -71 l122
-55 69 41 c109 63 238 116 341 140 1 1 18 -5 36 -13z m-1020 -63 c-13 -27 -29
-68 -35 -93 -11 -43 -10 -48 15 -86 46 -70 48 -92 14 -170 -17 -38 -36 -87
-44 -109 -12 -39 -13 -38 -13 52 -1 52 3 95 9 98 6 3 17 19 25 36 15 27 14 33
-10 83 -30 63 -30 59 -8 148 12 52 22 72 37 78 34 14 34 12 10 -37z m1215
-310 c15 -31 20 -69 25 -203 8 -198 -8 -208 -23 -15 -6 72 -15 146 -21 165
-10 36 -14 90 -5 90 2 0 13 -17 24 -37z m146 -190 c4 -10 12 -77 17 -150 10
-118 10 -134 -6 -157 -9 -14 -12 -26 -7 -26 10 0 -56 -138 -80 -166 -7 -8 -24
-14 -38 -12 -21 2 -27 9 -29 36 -2 18 4 58 14 90 9 31 20 80 23 107 l8 50 8
-38 c5 -26 3 -52 -5 -78 -9 -27 -10 -43 -3 -50 14 -14 69 51 84 100 10 35 9
44 -10 82 -28 52 -22 60 14 17 26 -31 28 -31 22 -8 -3 14 -9 50 -12 80 -3 30
-8 70 -11 89 l-5 34 -35 -34 c-38 -37 -44 -30 -14 19 22 35 54 42 65 15z
m-1455 -135 c0 -43 -2 -78 -6 -78 -11 0 -51 106 -58 152 -10 67 1 79 36 38 25
-31 28 -41 28 -112z m-94 -39 c-18 -41 -21 -19 -3 29 6 19 13 28 15 20 1 -8
-4 -30 -12 -49z m24 -44 c-14 -42 -4 -80 36 -132 34 -44 52 -31 30 22 -9 21
-16 54 -15 74 0 31 2 28 14 -24 7 -33 20 -76 28 -95 24 -57 32 -120 14 -120
-21 0 -47 33 -58 73 -5 19 -27 61 -49 93 -22 33 -40 66 -39 74 0 10 3 8 9 -5
8 -18 9 -17 9 7 1 32 19 83 27 75 3 -3 1 -22 -6 -42z m57 -647 c-115 -115
-173 -196 -252 -356 -51 -104 -125 -277 -125 -294 0 -13 37 -9 47 5 5 6 22 48
37 92 49 140 93 212 186 305 75 75 157 135 213 156 17 6 17 5 0 -32 -10 -22
-32 -64 -49 -96 -67 -119 -111 -258 -119 -368 -5 -63 -4 -61 19 40 26 115 82
276 99 287 7 4 8 0 4 -12 -35 -90 -78 -327 -76 -415 1 -31 4 -27 24 35 14 41
26 64 29 55 3 -8 15 -41 26 -73 l20 -59 -22 -41 c-11 -23 -32 -58 -46 -79
l-25 -38 -35 32 c-20 17 -61 43 -92 57 -48 23 -69 26 -170 27 -167 2 -153 -1
-147 37 12 75 223 482 327 632 44 62 198 205 223 205 4 0 -39 -46 -96 -102z
m1148 -250 c-27 -189 -53 -277 -91 -309 -15 -12 -16 -12 -11 6 10 34 77 317
76 324 0 3 -17 -31 -38 -76 -41 -85 -149 -283 -156 -283 -2 0 11 33 29 73 80
174 195 391 204 383 2 -3 -4 -55 -13 -118z m-865 -158 c46 -113 111 -262 146
-332 35 -71 61 -128 56 -128 -10 0 -180 145 -260 222 -45 43 -61 65 -56 77 18
45 22 99 18 241 -3 101 -2 150 4 140 6 -8 47 -107 92 -220z m945 -162 c-16
-112 -34 -161 -78 -206 -23 -24 -64 -56 -92 -72 -53 -30 -225 -94 -225 -83 0
8 57 79 135 167 52 59 252 246 263 246 2 0 1 -24 -3 -52z m-1091 -415 c77
-257 146 -444 273 -742 38 -91 88 -260 78 -269 -11 -11 -595 881 -595 909 0 4
27 24 60 45 44 27 60 43 60 59 0 12 -3 24 -6 27 -10 11 -158 -82 -206 -130
-55 -53 -73 -96 -63 -154 8 -48 122 -276 183 -365 23 -34 42 -63 42 -65 0 -2
-26 21 -57 51 -32 30 -103 92 -158 139 -116 99 -195 173 -195 184 0 4 24 29
52 55 29 26 96 89 148 139 52 49 129 113 170 142 68 46 139 123 158 170 4 11
9 2 13 -28 4 -25 23 -100 43 -167z m1195 127 c0 -9 -4 -8 -9 5 -5 11 -9 27 -9
35 0 9 4 8 9 -5 5 -11 9 -27 9 -35z m-1070 -65 c0 -5 -6 1 -14 15 -8 14 -14
30 -14 35 0 6 6 -1 14 -15 8 -14 14 -29 14 -35z m185 -77 c167 -68 295 -62
551 26 12 5 11 2 -5 -7 -14 -8 -65 -30 -115 -48 -82 -30 -100 -33 -210 -33
-110 -1 -127 2 -208 31 -48 17 -84 26 -80 20 5 -7 35 -52 67 -101 63 -95 110
-196 120 -261 6 -33 1 -27 -28 38 -19 42 -60 121 -91 175 -32 53 -69 117 -83
142 -14 25 -39 60 -56 79 l-31 34 50 -33 c27 -19 81 -47 119 -62z m539 -137
c-37 -71 -70 -128 -72 -125 -10 9 121 254 135 254 3 0 -26 -58 -63 -129z
m-120 -23 c-72 -108 -86 -146 -94 -253 -6 -93 -36 -251 -45 -242 -2 2 1 28 6
58 6 30 11 104 11 166 0 105 2 117 30 172 26 51 107 151 123 151 3 0 -11 -24
-31 -52z"/>
<path d="M2867 3976 c-76 -32 -81 -38 -25 -30 l46 6 7 -63 c12 -109 8 -120
-55 -151 -64 -32 -206 -57 -330 -59 -80 -1 -82 -2 -40 -11 25 -5 97 -7 160 -5
l115 5 -74 -36 c-94 -45 -142 -47 -274 -8 -54 15 -100 26 -103 23 -6 -6 134
-60 198 -78 56 -15 103 -7 229 35 97 33 105 34 117 18 26 -35 27 -65 1 -81
-76 -51 -142 -105 -131 -109 7 -2 61 23 120 56 59 32 125 65 146 73 38 14 38
14 68 -21 36 -44 81 -120 75 -127 -3 -2 -22 18 -43 46 -23 31 -46 51 -58 51
-14 0 -297 -154 -325 -177 -3 -2 0 -8 6 -14 8 -8 32 -2 83 21 39 17 74 30 76
27 9 -9 -159 -74 -178 -69 -11 3 -26 19 -34 36 l-13 31 -1 -27 c0 -21 -5 -28
-20 -28 -25 0 -34 34 -28 101 6 54 -3 54 -21 0 -18 -55 -14 -96 15 -130 22
-26 23 -32 10 -37 -12 -5 -13 -11 -6 -24 6 -10 10 -81 10 -158 0 -160 8 -234
24 -229 6 2 20 18 31 35 11 17 23 31 27 32 13 0 40 -61 34 -77 -3 -8 -10 -12
-15 -9 -5 3 -33 -14 -63 -39 -69 -57 -95 -58 -151 -6 -23 21 -52 42 -65 45
-18 6 -21 12 -16 34 9 38 19 45 43 32 26 -13 35 2 28 47 -4 25 -5 26 -11 7 -4
-11 -19 -24 -34 -30 -15 -5 -59 -43 -97 -84 -64 -67 -55 -79 13 -17 l23 21 24
-29 c14 -17 36 -53 49 -82 18 -37 35 -57 63 -73 l38 -20 -110 4 c-60 3 -125 8
-142 12 -41 8 -44 -12 -8 -53 24 -27 24 -27 25 -5 0 26 -3 26 144 11 77 -7
144 -7 221 0 60 5 111 8 114 6 2 -3 -20 -16 -50 -30 -49 -23 -66 -25 -188 -25
l-135 0 29 -30 29 -30 -34 -35 c-33 -34 -28 -45 10 -25 34 18 119 30 144 20
27 -10 76 -75 76 -100 0 -19 -46 -77 -54 -69 -4 4 -13 35 -20 70 -10 51 -14
58 -19 39 -4 -14 -7 -39 -7 -56 0 -46 -19 -92 -41 -99 -36 -12 -127 14 -149
42 -22 29 -26 18 -8 -22 25 -56 155 -88 291 -71 76 10 110 35 193 145 l71 94
11 101 c7 56 12 124 12 151 0 87 14 116 85 179 36 31 65 61 65 66 0 31 -177
-90 -187 -127 -3 -14 -3 -52 0 -85 3 -33 3 -57 0 -55 -5 5 -33 135 -33 153 0
6 51 54 113 107 144 123 189 198 172 290 l-7 36 -46 -34 c-59 -41 -126 -75
-149 -75 -11 0 1 11 27 27 87 51 130 92 130 124 0 16 11 47 25 69 14 22 25 46
25 55 0 24 -40 135 -73 200 -29 59 -30 61 -18 135 11 67 10 83 -9 155 -13 49
-29 87 -42 98 -28 24 -82 21 -151 -7z m148 -108 c13 -46 16 -81 11 -130 -7
-80 -13 -95 -37 -109 -17 -9 -18 -7 -11 23 4 18 7 88 7 156 -1 67 2 122 6 122
3 0 14 -28 24 -62z m1 -545 c18 -7 18 -22 -1 -29 -8 -4 -13 -10 -10 -14 8 -14
-30 -39 -75 -49 -40 -9 -106 -3 -163 15 -41 13 2 24 101 26 l107 2 -94 5 -95
6 50 22 c27 12 56 24 64 27 16 5 93 -2 116 -11z m-296 -192 c0 -10 -49 53 -50
63 0 6 11 -5 25 -24 14 -19 25 -36 25 -39z m377 -7 c8 -22 -25 -88 -65 -130
-19 -19 -36 -34 -38 -32 -2 3 2 32 8 67 9 48 18 68 41 87 33 28 45 30 54 8z
m-223 -72 c-5 -5 -36 -31 -68 -58 -54 -44 -57 -46 -35 -16 26 36 99 95 108 87
2 -3 0 -9 -5 -13z m-247 -403 c7 -7 44 -10 101 -8 50 2 85 1 79 -2 -7 -4 -63
-9 -125 -12 -110 -5 -113 -4 -96 14 20 22 26 23 41 8z m123 -256 c11 3 20 3
20 1 0 -2 -16 -28 -36 -58 -35 -53 -96 -98 -111 -82 -4 5 -1 11 7 14 8 3 35
25 59 49 l44 44 -39 41 -39 41 37 -28 c24 -17 45 -25 58 -22z"/>
<path d="M2124 3726 c3 -33 11 -55 26 -70 13 -11 19 -15 15 -7 -5 8 -17 39
-27 70 l-19 56 5 -49z"/>
<path d="M2085 3590 c-19 -37 -21 -48 -10 -43 9 3 25 23 35 44 23 44 24 49 10
49 -5 0 -21 -22 -35 -50z"/>
<path d="M2169 3532 c60 -43 217 -129 228 -124 23 8 3 22 -118 82 -119 60
-154 74 -110 42z"/>
<path d="M2064 3473 c-15 -27 -35 -60 -46 -75 -18 -27 -18 -29 -1 -55 9 -16
25 -38 36 -50 17 -20 17 -22 2 -31 -14 -7 -4 -19 61 -67 44 -31 89 -62 102
-68 24 -11 28 -27 10 -45 -6 -6 -9 -14 -6 -17 7 -8 189 93 221 123 23 22 27
23 27 8 0 -10 -9 -32 -21 -49 l-21 -32 26 30 c35 41 54 87 38 93 -8 2 -6 12 8
29 11 14 20 40 20 57 0 40 -40 121 -81 166 -29 33 -30 33 -13 5 59 -97 68
-141 34 -175 -29 -29 -66 -25 -145 15 -77 39 -71 39 19 1 44 -18 65 -22 78
-15 24 13 24 42 0 35 -23 -8 -128 43 -228 110 -44 30 -83 54 -87 54 -3 0 -18
-21 -33 -47z m201 -162 l60 -29 -85 -2 c-59 -2 -76 -5 -55 -10 17 -3 63 -5
103 -2 46 3 72 1 72 -6 0 -13 -92 -35 -145 -35 -44 0 -95 27 -95 49 0 8 -7 17
-15 20 -24 10 -17 23 18 33 54 15 79 12 142 -18z"/>
<path d="M2136 2929 c10 -12 37 -35 59 -52 38 -29 38 -28 -10 21 -47 49 -90
76 -49 31z"/>
<path d="M1960 1624 c-1 -49 206 -587 210 -543 0 4 -23 67 -51 140 -28 74 -75
197 -105 274 -29 77 -53 135 -54 129z"/>
<path d="M2170 1065 c0 -5 5 -17 10 -25 5 -8 10 -10 10 -5 0 6 -5 17 -10 25
-5 8 -10 11 -10 5z"/>
<path d="M3495 2340 c10 -11 20 -20 23 -20 3 0 -3 9 -13 20 -10 11 -20 20 -23
20 -3 0 3 -9 13 -20z"/>
<path d="M3520 2306 c0 -2 8 -10 18 -17 15 -13 16 -12 3 4 -13 16 -21 21 -21
13z"/>
<path d="M3573 2135 c6 -29 90 -255 93 -252 8 8 -31 129 -62 192 -19 39 -33
65 -31 60z"/>
<path d="M4072 1925 c3 -3 41 -23 84 -44 112 -55 115 -59 112 -172 -2 -63 -7
-93 -14 -92 -8 2 -14 -44 -19 -145 -3 -81 -11 -176 -16 -211 -5 -35 -8 -66 -5
-68 13 -14 38 55 51 143 29 194 55 399 55 431 0 49 -35 79 -143 123 -96 39
-116 45 -105 35z"/>
<path d="M893 1694 c-24 -52 -28 -73 -29 -169 l-2 -110 8 102 c6 70 16 121 34
164 33 81 25 90 -11 13z"/>
<path d="M3428 1699 c-21 -11 -38 -21 -38 -22 0 -1 48 -2 108 -3 59 0 155 -4
214 -9 108 -8 138 -2 138 28 0 5 -9 2 -20 -8 -16 -15 -30 -17 -82 -12 -35 4
-92 16 -126 27 -80 25 -146 25 -194 -1z"/>
<path d="M3273 1605 c-16 -11 -23 -12 -26 -2 -3 6 -3 -4 0 -23 8 -52 40 -81
231 -207 94 -63 170 -119 167 -123 -3 -5 -72 -43 -153 -85 -176 -92 -364 -214
-487 -316 -177 -148 -478 -490 -453 -515 2 -2 74 62 159 142 312 296 474 413
929 671 94 54 105 63 108 90 3 26 -4 37 -45 73 -27 22 -89 68 -138 102 -50 33
-83 58 -75 55 175 -57 260 -80 260 -71 0 23 -131 102 -270 163 -137 59 -176
68 -207 46z"/>
<path d="M3246 1440 c-4 -20 -41 -68 -112 -142 -147 -154 -224 -245 -303 -362
-77 -114 -139 -230 -119 -224 7 3 83 83 169 179 86 96 229 243 318 328 88 84
159 157 156 161 -3 5 -27 27 -54 49 l-49 41 -6 -30z"/>
<path d="M872 1370 c0 -14 2 -19 5 -12 2 6 2 18 0 25 -3 6 -5 1 -5 -13z"/>
<path d="M3340 1290 c-11 -11 -20 -28 -20 -38 0 -24 31 -52 58 -52 47 0 69 61
34 93 -25 22 -48 21 -72 -3z"/>
</g>
</svg>